<?xml version="1.0" encoding="UTF-8"?>
<svg version="1.1" viewBox="0 0 287.89 398.83" xmlns="http://www.w3.org/2000/svg">
 <g transform="translate(-167.69 -307.05)">
  <rect x="167.69" y="381.62" width="287.89" height="324.26"/>
  <rect x="167.69" y="307.05" width="287.89" height="68.69" ry="10.102"/>
  <rect x="179.81" y="316.97" width="80.812" height="46.467" ry="7.5761" fill="#fff"/>
  <path transform="translate(-174.29 -120)" d="m518.57 461.29c0 6.9036-5.5964 12.5-12.5 12.5s-12.5-5.5964-12.5-12.5 5.5964-12.5 12.5-12.5 12.5 5.5964 12.5 12.5z" fill="#fff"/>
  <path transform="translate(-135.36 -120.62)" d="m518.57 461.29c0 6.9036-5.5964 12.5-12.5 12.5s-12.5-5.5964-12.5-12.5 5.5964-12.5 12.5-12.5 12.5 5.5964 12.5 12.5z" fill="#fff"/>
  <path d="m427.28 322.89-3.8007 3.8007c-6.807-4.6021-16.115-3.9052-22.141 2.1213-6.0266 6.0266-6.7458 15.356-2.1434 22.163l-3.3367 3.3367 4.4857 4.4857 3.3146-3.3146c6.8291 4.8128 16.319 4.1867 22.429-1.9224 6.1099-6.1099 6.7373-15.599 1.9224-22.429l3.7565-3.7565-4.4857-4.4857z" fill="#fff"/>
  <path transform="matrix(1.2517 0 0 1.2517 295.83 -47.791)" d="m88.893 450.82c0 42.121-34.146 76.267-76.267 76.267s-76.267-34.146-76.267-76.267 34.146-76.267 76.267-76.267 76.267 34.146 76.267 76.267z" fill="#fff"/>
  <path d="m310.66 441.03c-23.203 0-43.939 10.462-57.781 26.938 10.715 13.029 17.125 29.721 17.125 47.906 0 18.471-6.6376 35.384-17.656 48.5 13.84 16.829 34.823 27.562 58.312 27.562 41.675 0 75.469-33.794 75.469-75.469s-33.794-75.438-75.469-75.438z"/>
  <rect x="357.86" y="640.06" width="80.812" height="46.467" ry="7.5761" fill="#fff"/>
 </g>
</svg>
